<svg xmlns="http://www.w3.org/2000/svg" xmlns:xlink="http://www.w3.org/1999/xlink" preserveAspectRatio="xMidYMid meet" version="1.0" viewBox="1.0 0.7 1442.7 446.1" zoomAndPan="magnify" style="fill: rgb(128, 163, 205);" original_string_length="1576"><g id="__id162_sk7q0cebx1"><path d="M143.7,320.5c16.7,6,32.2,11.9,48,17.1s28.4,15.3,40.5,26c8.6,7.6,11.4,17.6,7.4,28.7c-2.6,7.3-5.4,14.8-9.1,21.6 c-13.6,24.8-36.2,32.9-63.2,25.5c-35.2-9.6-46-23.4-52.1-66.6c-1.3-9.1-0.2-18.5-0.2-29.3c-6.1,0.8-12.4,0.9-18.4,2.4 c-23.5,5.7-45.8,13.6-64.5,30.2c-6.5,5.7-15.7,8.7-24,11.9c-5.5,2.1-7.1-0.1-5.2-5.8C7.6,367.7,17,355,29.6,346.3 c27-18.9,56-32,90-30.4c1.9,0.1,5-1.9,5.7-3.7c17.8-42.4,44.9-77.9,76.4-111.2c35.9-38,79.1-68.5,127-89.6 c41.6-18.5,83.6-38.3,128.3-47.9c68.6-14.7,137.9-15.7,207.4-4c72.4,12.1,143.4,30,214.6,47c47.2,11.3,94.5,23,143,25.8 c37.3,2.2,74.9,1.6,112.3,0.4c29.8-0.9,59.6-3.4,89.2-7.4c35.5-4.8,68.1-19.6,100.9-33c42.7-17.3,77.4-44.6,102.7-83.4 c2.7-4.1,5.6-8.2,11.1-5.9s4.9,7.7,3.8,12.1c-3,13.2-9.5,25.4-18.8,35.3c-26.2,27.6-55,51.5-90.9,65.8c-35,14-69.4,29.8-107.1,35.3 c-24.4,3.5-49.1,6.1-73.8,7.4c-36.4,1.8-72.9,3.4-109.4,2.7c-53.9-1-106.3-13.3-158.6-25.1C825,123.5,766.9,108.4,708.3,96 c-48.1-10.2-96.7-18.5-146.4-16.9c-35,1.2-70.9,0.2-104.2,10.8c-68.4,21.8-138.3,41.6-196.9,85.7c-46.4,34.9-86.2,76.2-111.1,129.8 C147.4,310.2,145.8,315.3,143.7,320.5z M137.1,347.8c-3.9,16-0.9,30.2,3.6,44.3c6,18.4,23.3,29.7,43.7,28.8 c17.7-0.8,28.1-10.7,33-31.5c0.1-0.2,0.3-0.5,0.2-0.7c-1.1-2.9-1.3-6.9-3.4-8.6C192,361.9,165.3,354.2,137.1,347.8L137.1,347.8z" style="fill: inherit;"/></g></svg>
