<svg xmlns="http://www.w3.org/2000/svg" xmlns:xlink="http://www.w3.org/1999/xlink" preserveAspectRatio="xMidYMid meet" version="1.0" viewBox="15.5 14.0 112.0 296.7" zoomAndPan="magnify" style="fill: rgb(0, 0, 0);" original_string_length="31854"><g id="__id122_scxcgu88zr" style="fill: rgb(72, 121, 162);"><path d="M67.7,275.3L67.7,275.3C67.7,275.3,67.7,275.3,67.7,275.3C67.7,275.3,67.7,275.3,67.7,275.3z" style="fill: inherit;"/><path d="M74.1,65.9c0-0.1,0-0.1,0-0.2c0,0,0,0,0,0C74.1,65.7,74.1,65.8,74.1,65.9z" style="fill: inherit;"/><path d="M46,107.6c0,0-0.1-0.1-0.1-0.1c0,0,0,0,0-0.1C45.9,107.5,46,107.6,46,107.6z" style="fill: inherit;"/><path d="M45.7,107.3C45.7,107.2,45.7,107.2,45.7,107.3C45.7,107.2,45.7,107.2,45.7,107.3 C45.7,107.2,45.7,107.2,45.7,107.3z" style="fill: inherit;"/><path d="M56.1,24.4C56.1,24.4,56.1,24.4,56.1,24.4C56.1,24.4,56.1,24.4,56.1,24.4L56.1,24.4z" style="fill: inherit;"/><path d="M58 24.7L58 24.7 58 24.7z" style="fill: inherit;"/><path d="M52.8,160.1C52.8,160.1,52.8,160.1,52.8,160.1c0-0.1,0-0.1,0-0.2C52.7,159.9,52.7,160,52.8,160.1 c0,0.1,0,0.1,0,0.1c0,0,0,0,0,0C52.8,160.2,52.8,160.2,52.8,160.1c0,0.1,0,0.1,0,0.1c0,0,0,0,0,0C52.8,160.2,52.8,160.2,52.8,160.1 C52.8,160.1,52.8,160.1,52.8,160.1z" style="fill: inherit;"/><path d="M69.1,186.8c0,0,0.1,0.1,0.1,0.1c0,0,0,0,0,0C69.2,187,69.1,186.9,69.1,186.8z" style="fill: inherit;"/><path d="M52.8,160.3C52.8,160.3,52.8,160.3,52.8,160.3C52.8,160.2,52.8,160.2,52.8,160.3 C52.8,160.2,52.8,160.2,52.8,160.3C52.8,160.2,52.8,160.2,52.8,160.3z" style="fill: inherit;"/><path d="M50.5,184.7c-0.1,0-0.1,0-0.2-0.1c0,0-0.1,0-0.1-0.1L50.5,184.7z" style="fill: inherit;"/><path d="M16.2,111.6C16.2,111.6,16.2,111.6,16.2,111.6C16.2,111.5,16.2,111.5,16.2,111.6 C16.2,111.5,16.2,111.5,16.2,111.6z" style="fill: inherit;"/><path d="M40.2,143.4C40.2,143.4,40.2,143.4,40.2,143.4c0,0.1,0.1,0.1,0.1,0.1C40.2,143.5,40.2,143.4,40.2,143.4z" style="fill: inherit;"/><path d="M99,129.7c0,0.1-0.1,0.2-0.1,0.2c0,0,0,0.1-0.1,0.1C98.9,130,98.9,129.8,99,129.7z" style="fill: inherit;"/><path d="M86.9,161.4C86.9,161.4,86.9,161.4,86.9,161.4C86.9,161.4,86.9,161.4,86.9,161.4 C86.9,161.4,86.9,161.4,86.9,161.4z" style="fill: inherit;"/><path d="M86.9 161.4L86.9 161.4 86.9 161.4z" style="fill: inherit;"/><path d="M103.2,96.1L103.2,96.1C103.2,96.1,103.2,96.2,103.2,96.1C103.2,96.2,103.2,96.1,103.2,96.1z" style="fill: inherit;"/><path d="M92,145.7c0,0.1-0.1,0.1-0.1,0.2c0,0.1-0.1,0.2-0.1,0.3C91.9,146,92,145.9,92,145.7z" style="fill: inherit;"/><path d="M30,238.8C30,238.8,30,238.9,30,238.8C30,238.9,30,238.9,30,238.8C30,238.9,30,238.9,30,238.8 C30,238.8,30,238.8,30,238.8z" style="fill: inherit;"/><path d="M30 238.8L30 238.8 30 238.8z" style="fill: inherit;"/><path d="M30 238.8L30 238.8 30 238.8z" style="fill: inherit;"/><path d="M29.8,238.5c0.1,0.1,0.1,0.2,0.2,0.3l0,0C29.9,238.7,29.9,238.6,29.8,238.5z" style="fill: inherit;"/><path d="M43.8,254.6C43.8,254.6,43.8,254.6,43.8,254.6c-0.1-0.1-0.2-0.1-0.2-0.2L43.8,254.6z" style="fill: inherit;"/><path d="M30 238.8L30 238.8 30 238.8z" style="fill: inherit;"/><path d="M30.2,239.2c-0.1-0.1-0.1-0.2-0.2-0.3c0,0,0,0,0,0C30.1,239,30.1,239.1,30.2,239.2z" style="fill: inherit;"/><path d="M49.7,238.3C49.7,238.2,49.7,238.2,49.7,238.3c0-0.1,0-0.1,0-0.1C49.7,238.2,49.7,238.2,49.7,238.3z" style="fill: inherit;"/><path d="M58.4,254c0,0.1,0,0.1,0,0.2c0,0,0,0,0,0c0,0,0,0,0,0C58.4,254.1,58.4,254,58.4,254z" style="fill: inherit;"/><path d="M80.1,248.9C80.1,248.9,80.1,248.9,80.1,248.9C80.1,248.9,80,248.9,80.1,248.9L80.1,248.9z" style="fill: inherit;"/><path d="M87.3,201.9c0,0,0.1-0.1,0.1-0.1c0.1-0.1,0.1-0.1,0.2-0.2C87.5,201.8,87.4,201.9,87.3,201.9z" style="fill: inherit;"/><path d="M126.5,171.3c0.2-0.9,0.4-1.8,0.5-2.7c0.1-0.3,0.1-0.5,0.2-0.8c0.1-0.3,0.1-0.6,0-0.9 c-0.1-0.2-0.2-0.3-0.3-0.5c-0.2-0.2-0.4-0.2-0.6-0.3c-0.1,0-0.2,0-0.3,0c-0.3,0-0.6,0.1-0.8,0.2c-0.4,0.1-0.7,0.3-1,0.5 c-1.3,0.6-2.6,1.1-3.9,1.7c-1.3,0.7-2.7,1.3-4,2.1c-2.8,1.5-5.3,3.4-7.7,5.4c-1.3,1.1-2.6,2.2-3.8,3.4c-1.2,1.2-2.3,2.4-3.3,3.7 c-0.6,0.8-1.2,1.5-1.7,2.3c-0.4,0.7-0.8,1.4-1.3,2.1c-0.8,1.4-1.6,2.9-2.5,4.2c-0.5,0.8-1,1.5-1.4,2.3c-0.4,0.7-0.8,1.3-1.2,1.9 c-0.6,0.8-1.1,1.5-1.8,2.2c-0.7,0.8-1.5,1.5-2.3,2.2c-0.3,0.2-0.6,0.5-0.9,0.7c-0.3,0.3-0.7,0.6-1,0.8c-0.6,0.5-1.2,1.1-1.7,1.7 c-0.6,0.7-1.1,1.4-1.6,2.1c-0.5,0.7-0.9,1.4-1.3,2.2c-0.4,0.7-0.8,1.4-1.1,2.2c-0.8,1.6-1.3,3.3-1.7,5.1c-0.3,1.6-0.5,3.3-0.7,4.9 c-0.2,1.7-0.4,3.4-0.4,5.1c0,1.6-0.1,3.3,0,4.9c0.1,1.6,0.2,3.3,0.2,5c0,0.8,0,1.6,0,2.4c0,0.8,0.1,1.5,0.1,2.3c0,0.5,0,1,0,1.5 c0,0.5-0.1,0.9-0.1,1.4c0,0.8-0.1,1.6-0.1,2.5c-0.2,0.2-0.4,0.4-0.5,0.7c-0.1,0.4-0.2,0.9-0.4,1.3c-0.1,0.4-0.2,0.8-0.4,1.1 c-0.2,0.6-0.6,1.2-1,1.7c-0.6,0.8-1.2,1.6-1.9,2.3c-0.7,0.8-1.4,1.6-2.2,2.4c-0.8,0.8-1.6,1.6-2.4,2.4c-0.7,0.7-1.3,1.4-1.9,2.2 c0-0.4,0-0.9,0-1.3c0.1-1.9,0.3-3.9,0.4-5.8c0-0.1,0-0.1,0-0.2c0.2-1.5,0.4-2.9,0.5-4.4c0.2-1.7,0.4-3.3,0.5-5c0,0,0,0,0,0.1 c0.1-0.7,0.1-1.3,0.2-2c0.1-0.8,0.2-1.5,0.2-2.3c0.1-1.2,0.2-2.5,0.3-3.7c0.3-2.5,0.6-5,0.8-7.5c0.1-1.3,0.2-2.6,0.3-3.9 c0.1-1.2,0.2-2.3,0.3-3.5c0.2-1.9,0.5-3.7,0.7-5.6c0.3-1.8,0.6-3.6,0.9-5.4c0.3-1.9,0.4-3.9,0.7-5.8c0.1-1,0.2-1.9,0.3-2.9 c0.1-0.9,0.3-1.9,0.4-2.8c0.2-1.9,0.4-3.9,0.6-5.8c0.1-1,0.3-2.1,0.3-3.1c0.1-1,0.1-2,0.2-3c0-1,0-2,0-3c0.1-0.3,0.2-0.6,0.3-0.8 c0.3-0.7,0.6-1.4,0.9-2.1c0.2-0.4,0.4-0.8,0.6-1.2c0.2-0.4,0.4-0.8,0.7-1.2c0.4-0.7,0.8-1.4,1.2-2.2c0.2-0.4,0.4-0.8,0.6-1.3 c0.2-0.4,0.4-0.9,0.6-1.3c0.5-1,0.8-2,1.1-3.1c0,0,0,0,0-0.1c0.4,0,0.9-0.2,1.1-0.6c0.1-0.3,0.3-0.5,0.4-0.8 c0.3-0.3,0.5-0.6,0.8-0.9c0.1-0.1,0.3-0.2,0.4-0.3c0.3-0.2,0.5-0.4,0.7-0.6c0.4-0.3,0.7-0.7,1.1-1c0.7-0.7,1.4-1.5,2.2-2.2 c1.1-0.9,2.3-1.9,3.4-2.9c1.2-1.1,2.1-2.5,3-3.8c0.4-0.7,0.9-1.3,1.3-2c0.5-0.8,0.9-1.5,1.3-2.4c0.7-1.5,1.4-2.9,2.3-4.3 c0.5-0.8,1.1-1.7,1.7-2.5c0.4-0.6,0.9-1.2,1.4-1.8c0.6-0.6,1.1-1.3,1.7-1.9c0.6-0.6,1.2-1.2,1.8-1.8c0.6-0.6,1.2-1.3,1.9-1.9 c1.3-1.3,2.5-2.5,3.7-3.9c0.6-0.8,1.3-1.6,1.8-2.5c0.5-0.7,1-1.5,1.4-2.3c0.9-1.7,1.7-3.6,2.2-5.4c0.3-0.9,0.5-1.8,0.7-2.7 c0.2-1,0.3-2.1,0.4-3.1c0.1-1.8,0.1-3.6-0.1-5.4c-0.1-0.9-0.2-1.7-0.3-2.6c-0.2-1.1-0.3-2.3-0.6-3.4c-0.4-1.8-0.9-3.6-1.4-5.4 c-0.3-0.9-0.5-1.7-0.8-2.5c-0.3-0.8-0.6-1.7-0.9-2.5c-0.6-1.6-1.2-3.3-1.7-5c-0.6-1.8-1.3-3.5-1.7-5.3c-0.2-0.6-0.3-1.2-0.4-1.8 c-0.2-1.2-0.3-2.4-0.5-3.6c-0.1-1.2-0.3-2.5-0.3-3.7c0-1.2,0-2.3,0-3.5c0-0.3,0-0.6-0.1-0.9c-0.1-0.6-0.7-1-1.3-1h0 c-0.5,0-0.8,0.3-1.2,0.6c-0.2,0.2-0.4,0.3-0.5,0.5c-0.3,0.3-0.7,0.6-1,0.8c-0.3,0.3-0.6,0.6-0.9,0.9c-0.6,0.6-1.1,1.2-1.7,1.8 c-1.1,1.2-2.2,2.5-3.2,3.8c-1.1,1.4-2.2,2.8-3.1,4.3c-0.9,1.5-1.7,3.1-2.5,4.8c-0.8,1.6-1.5,3.2-2.2,4.8c-0.8,1.7-1.5,3.4-2.1,5.2 c-0.5,1.8-1,3.5-1.4,5.3c-0.4,1.7-0.9,3.5-1.3,5.2c-0.4,1.5-0.7,3-1.1,4.5c-0.4,1.5-0.9,2.9-1.4,4.4c-0.8,2-1.8,4-3,5.8 c-0.4,0.6-0.9,1.2-1.3,1.9c-0.4,0.6-0.8,1.3-1.1,2.1c-0.7,1.7-1.2,3.4-1.5,5.2c-0.6,3.6-1.2,7.2-0.9,10.8c0.1,1.4,0.3,2.9,0.5,4.3 c0.2,1.4,0.6,2.8,0.9,4.2c0.3,1.2,0.6,2.4,0.8,3.6c0.2,1.1,0.6,2.3,0.8,3.4c0.1,0.8,0.2,1.5,0.4,2.3c0.1,0.7,0.1,1.4,0.2,2.1 c0,0.6,0.1,1.2,0.1,1.8c-0.1,0.2-0.2,0.3-0.1,0.5c0,0.1,0,0.1,0,0.2c-0.1,0.7-0.3,1.4-0.5,2.2c-0.1,0.4-0.2,0.7-0.3,1.1 c-0.1,0.4-0.2,0.7-0.4,1.1c-0.4,0.9-0.8,1.8-1.2,2.7c-0.3,0.8-0.7,1.5-1.1,2.3c-0.4,0.8-0.8,1.6-1.2,2.4c-0.1,0.2-0.2,0.5-0.3,0.7 c-0.1-1.4-0.1-2.8-0.3-4.1c-0.1-1-0.2-2-0.3-3c-0.1-1-0.1-1.9-0.2-2.9c-0.1-1.9-0.4-3.8-0.6-5.7c-0.2-1.9-0.5-3.8-0.7-5.8 c-0.3-2-0.7-3.9-1.1-5.8c-0.4-1.8-0.8-3.7-1.2-5.5c-0.4-1.8-0.9-3.6-1.5-5.4c-0.3-0.9-0.6-1.8-0.9-2.6c-0.3-0.9-0.6-1.7-0.9-2.6 c-0.6-1.8-1.3-3.6-1.8-5.4c-0.2-0.5-0.3-1-0.5-1.5c0-0.1,0.1-0.2,0-0.3c0-0.4,0-0.9,0-1.3c0-0.3,0-0.6,0-0.9c0-0.2,0.1-0.5,0.1-0.7 c0.1-0.4,0.1-0.8,0.1-1.1c0-0.3,0.1-0.5,0.1-0.8c0.1-0.5,0.1-1,0.1-1.4c0.1-0.5,0.1-1.1,0.1-1.6c0-0.5,0-1.1,0.1-1.6 c0,0.1,0,0.2,0,0.3c0.1-0.6,0.1-1.3,0.2-1.9c0-0.4,0.1-0.7,0.1-1.1c0.1-0.4,0.1-0.9,0.1-1.3c0,0.1,0,0.2,0,0.4 c0.1-0.7,0.1-1.3,0.2-2c0-0.5,0.1-1.1,0.1-1.6c0.2-1.6,0.4-3.3,0.7-4.9c0.3-1.6,0.8-3.1,1.4-4.7c0.5-1.3,1-2.6,1.6-4 c0.6-1.6,1.3-3.2,1.9-4.9c0.5-1.5,0.9-3,1.3-4.5c0.4-1.6,0.7-3.2,0.9-4.8c0.2-1.4,0.3-2.9,0.4-4.3c0-1.4,0-2.7-0.1-4.1 c-0.3-3-0.6-5.9-1.1-8.8c0-0.1,0-0.2-0.1-0.3c0,0,0,0,0,0c0,0,0,0,0,0l0,0c0-0.1,0-0.2,0-0.2c0,0,0,0.1,0,0.1l0,0c0,0,0-0.1,0-0.1 c0,0,0,0,0,0c-0.3-1.7-0.7-3.3-1.1-5c-0.4-1.6-1-3.1-1.6-4.6c-1.2-3.1-2.6-6.2-4-9.2c-0.4-1-0.9-1.9-1.3-2.9 c-0.4-1-0.9-1.9-1.3-2.9c-0.7-2.1-1.2-4.3-1.6-6.5c-0.1-0.8-0.2-1.6-0.3-2.4c-0.1-0.8-0.1-1.6-0.1-2.5c0-1.7,0-3.3,0-5 c0-0.8,0.1-1.6,0.1-2.4c0-0.8,0.1-1.7,0.2-2.5c0-0.9,0.1-1.8,0.2-2.7c0-1,0.3-2.4-0.8-2.9c-0.2-0.1-0.4-0.2-0.7-0.2 c-0.4,0-0.7,0.1-1.1,0.3c-0.1,0.1-0.2,0.1-0.3,0.2c-0.2,0.2-0.4,0.3-0.6,0.5c-0.5,0.4-0.9,0.9-1.3,1.3c-0.9,0.9-1.9,1.7-2.8,2.6 c-0.7,0.5-1.3,1.1-2,1.6c-0.6,0.6-1.2,1.1-1.8,1.7c-0.6,0.6-1.2,1.2-1.7,1.9c-0.6,0.7-1.1,1.5-1.7,2.3c-0.9,1.3-1.8,2.7-2.6,4.2 c-0.8,1.5-1.6,3-2.4,4.5c-0.8,1.6-1.5,3.3-2,5.1c-0.5,1.6-0.9,3.1-1.2,4.7c-0.3,1.7-0.5,3.4-0.7,5c-0.1,0.8-0.2,1.7-0.3,2.5 c-0.1,0.9-0.3,1.7-0.4,2.6c-0.6,3.3-1.3,6.5-2.2,9.7c-0.2,0.8-0.5,1.5-0.7,2.3c-0.2,0.8-0.4,1.6-0.5,2.3c-0.3,1.7-0.6,3.4-0.8,5.1 c-0.2,1.7-0.4,3.5-0.4,5.2c0,1.6,0.2,3.2,0.4,4.9c0.1,0.9,0.2,1.8,0.4,2.7c0.2,0.8,0.4,1.7,0.6,2.5c0.5,1.6,1.1,3.2,1.8,4.8 c1,2.3,2.2,4.5,3.6,6.6c0.3,0.5,0.6,1.1,1,1.6c0.4,0.5,0.7,1,1.1,1.5c0.8,1,1.5,2,2.4,3c0.1,0.1,0.1,0.2,0.2,0.3 c-0.1-0.1-0.1-0.1-0.2-0.2c0.1,0.1,0.1,0.1,0.2,0.2c1,1.2,2.2,2.4,3.3,3.5c1.1,1.1,2.2,2.2,3.4,3.3c1.1,1,2.3,2,3.5,3 c1.1,0.9,2.2,1.8,3.1,2.8c0.5,0.6,0.9,1.1,1.4,1.7c0.5,0.6,1,1.3,1.5,1.9c0.2,0.3,0.4,0.5,0.6,0.8c-0.1,0.2-0.1,0.4,0,0.6 c0.4,1,0.8,2,1.2,3.1c0,0,0,0,0,0.1c0,0.1,0.1,0.2,0.1,0.2c0.2,0.5,0.4,1.1,0.6,1.7c0.5,1.8,1.1,3.7,1.7,5.5 c0.3,0.8,0.6,1.7,0.9,2.5c0.3,0.9,0.6,1.7,0.8,2.6c0.6,1.8,1.1,3.6,1.5,5.4c0.2,0.8,0.4,1.6,0.5,2.5c0.2,0.8,0.3,1.5,0.5,2.3 c0.3,1.6,0.6,3.2,0.9,4.8c0.3,1.8,0.5,3.7,0.8,5.5c0.3,2,0.5,4,0.7,6c0.2,1.9,0.3,3.7,0.4,5.6c0.2,1.9,0.3,3.8,0.4,5.7 c0.1,1.6,0.1,3.2,0.2,4.9c0,1.6-0.1,3.2-0.2,4.8c-0.2,1.4-0.4,2.8-0.5,4.2c-0.2-0.3-0.3-0.6-0.5-0.9c-0.3-0.5-0.7-1-1.1-1.4 c-0.4-0.5-0.9-1-1.4-1.4c-0.2-0.2-0.4-0.3-0.7-0.5c0-0.3,0-0.5-0.2-0.7c-0.1-0.1-0.2-0.2-0.3-0.4c-0.4-0.5-1-0.9-1.4-1.4 c-0.4-0.4-0.8-0.9-1.2-1.4c-0.3-0.3-0.5-0.7-0.8-1c-0.3-0.5-0.7-0.9-1.1-1.4c-0.6-0.9-1.3-1.8-1.9-2.7c-0.6-0.9-1.3-1.7-1.8-2.7 c-0.2-0.3-0.3-0.6-0.4-0.8c-0.2-0.3-0.3-0.6-0.5-0.9c-0.3-0.5-0.6-1.1-0.8-1.6c-0.7-1.6-1.2-3.3-1.8-5c-0.5-1.5-0.8-3.1-1.1-4.6 c-0.2-1.5-0.4-3-0.5-4.5c-0.1-0.8-0.2-1.5-0.3-2.3c-0.1-0.8-0.2-1.5-0.3-2.3c-0.1-0.9-0.2-1.7-0.3-2.6c-0.1-0.8-0.2-1.7-0.3-2.5 c-0.2-1.6-0.5-3.3-0.7-4.9c-0.3-1.9-0.7-3.8-1.3-5.6c-0.6-1.8-1.4-3.6-2.2-5.3c-0.4-0.8-0.8-1.5-1.2-2.3c-0.5-0.8-1-1.5-1.5-2.3 c-0.2-0.4-0.5-0.7-0.8-1c-0.4-0.5-0.7-0.9-1.1-1.3c-0.5-0.6-1.1-1.2-1.7-1.8c-0.6-0.6-1.3-1.2-1.9-1.9c-0.6-0.6-1.2-1.3-1.9-1.9 c-0.7-0.6-1.3-1.2-2-1.7c-0.6-0.6-1.3-1.1-2-1.6c-0.7-0.5-1.4-1-2.1-1.5c-0.7-0.5-1.4-1.1-2.1-1.6c-1.4-1.1-2.7-2.4-3.9-3.6 c-0.3-0.3-0.6-0.6-0.9-1c-0.7-0.9-1.4-1.9-2.1-3c-0.7-1.1-1.4-2.2-2.1-3.3c-0.6-1.1-1.2-2.2-1.8-3.2c-0.3-0.5-0.8-1-1.3-1 c0,0-0.1,0-0.1,0c-0.6,0.1-0.9,0.4-1.1,1c0,0.1-0.1,0.2-0.1,0.3c-0.1,0.2-0.2,0.5-0.3,0.7c-0.2,0.5-0.4,1-0.5,1.6 c-0.1,0.4-0.2,0.9-0.4,1.4c-0.1,0.5-0.3,1-0.4,1.5c-0.4,1.9-0.8,3.9-1,5.9c-0.1,1.3-0.2,2.6-0.1,3.9c0,1.2,0.1,2.4,0.2,3.6 c0.1,1.3,0.3,2.5,0.5,3.8c0.2,1.2,0.4,2.5,0.6,3.7c0-0.1,0-0.2-0.1-0.3c0.2,1,0.3,2,0.6,2.9c0.2,0.8,0.4,1.6,0.7,2.4 c0.3,0.8,0.5,1.6,0.8,2.4c0.3,0.8,0.7,1.7,1,2.5c0.6,1.6,1.2,3.3,1.9,4.9c0.7,1.7,1.2,3.4,1.8,5.1c0.3,0.9,0.6,1.7,0.9,2.5 c0.3,0.8,0.6,1.7,0.9,2.5c0.3,0.8,0.5,1.7,0.7,2.6c0.2,0.9,0.4,1.7,0.6,2.6c0.4,1.7,0.8,3.4,1.2,5.1c0.5,1.9,1.3,3.7,2.2,5.4 c0.4,0.8,0.9,1.5,1.3,2.3c0.5,0.8,1,1.5,1.5,2.3c1.1,1.5,2.3,2.9,3.7,4.1c0.7,0.6,1.4,1.1,2.1,1.6c0.7,0.6,1.5,1.2,2.2,1.7 c0.7,0.5,1.4,1.1,2.2,1.6c0.7,0.5,1.5,0.9,2.2,1.4c0.8,0.5,1.5,0.9,2.3,1.3c0.8,0.4,1.5,0.7,2.3,1c0.7,0.3,1.4,0.5,2.1,0.7 c0.7,0.2,1.4,0.3,2.1,0.5c1.2,0.3,2.5,0.5,3.7,0.8c0.7,0.1,1.4,0.3,2.1,0.4c0.7,0.1,1.4,0.2,2.2,0.4c0.6,0.1,1.3,0.2,1.9,0.4 c0.6,0.1,1.1,0.3,1.7,0.5c0.4,0.2,0.8,0.3,1.2,0.5c0.1,0.2,0.2,0.4,0.5,0.5c0.3,0.2,0.5,0.3,0.8,0.5c0.3,0.2,0.6,0.5,0.9,0.7 c0.3,0.3,0.6,0.6,0.9,0.9c0.6,0.8,1.2,1.7,1.7,2.6c0.2,0.5,0.4,1.1,0.5,1.7c0.1,0.4,0.1,0.8,0.1,1.2c0,0,0,0.1,0,0.1 c-0.1,0.8-0.3,1.6-0.4,2.4c-0.3,1.9-0.6,3.8-0.9,5.7c-0.3,1.8-0.7,3.7-1.1,5.5c-0.4,1.8-0.8,3.7-1.1,5.5c-0.3,1.8-0.6,3.7-0.8,5.5 c-0.2,1.8-0.4,3.7-0.7,5.5c-0.3,1.9-0.6,3.8-0.9,5.7c-0.2,1.1-0.3,2.3-0.4,3.4c-0.2,1.3-0.3,2.7-0.4,4.1c-0.1,1.1-0.2,2.2-0.2,3.3 c-0.1,1-0.1,1.9-0.2,2.9c-0.2,1.9-0.4,3.9-0.4,5.8c0,1.9-0.1,3.8,0,5.7c0,0.9,0.1,1.9,0.2,2.8c0.1,0.9,0.2,1.9,0.2,2.8 c0.1,1.9,0.1,3.8,0.1,5.7c0,0,0,0.1,0,0.1c-0.3-0.5-0.7-1-1-1.5c-0.5-0.6-1-1.2-1.6-1.9c-0.4-0.5-0.7-0.9-1.1-1.4 c-0.5-0.6-1-1.2-1.5-1.8c-0.1-0.1-0.3-0.3-0.4-0.4c0,0,0-0.1,0-0.1c0.1-0.3,0-0.5-0.1-0.8c0,0,0,0.1,0.1,0.1 c-0.3-0.6-0.5-1.2-0.6-1.8c-0.1-0.3-0.1-0.7-0.1-1c0-0.5-0.1-0.9-0.1-1.4c-0.1-0.5-0.1-1-0.1-1.5c0-0.5-0.1-1.1-0.2-1.6 c0,0,0,0.1,0,0.1c0-0.1,0-0.1,0-0.2c-0.1-0.4-0.1-0.8-0.2-1.1c-0.1-0.4-0.2-0.8-0.3-1.2c-0.2-0.8-0.4-1.5-0.6-2.3 c-0.2-0.8-0.4-1.5-0.7-2.3c-0.2-0.7-0.5-1.3-0.7-1.9c-0.4-1.3-0.8-2.6-1.2-3.8c-0.2-0.7-0.4-1.3-0.6-2c-0.2-0.6-0.3-1.2-0.5-1.8 c-0.5-1.6-0.8-3.2-1.1-4.8c-0.2-1.4-0.3-2.8-0.4-4.1c-0.1-1.5-0.3-2.9-0.4-4.4c-0.1-1.6-0.2-3.2-0.4-4.7c-0.2-1.5-0.4-3-0.6-4.5 c-0.1-0.7-0.2-1.5-0.3-2.2c-0.1-0.8-0.3-1.6-0.4-2.4c-0.3-1.5-0.6-3-1-4.5c-0.2-0.7-0.4-1.4-0.7-2.1c-0.3-0.7-0.7-1.5-1-2.2 c-0.3-0.6-0.6-1.3-1-1.9c-0.4-0.7-0.8-1.3-1.1-2c-0.7-1.2-1.3-2.4-2-3.5c-0.7-1.2-1.5-2.3-2.3-3.4c-0.8-1.1-1.5-2.1-2.2-3.3 c-0.7-1.1-1.4-2.2-1.9-3.4c-0.3-0.7-0.6-1.4-0.8-2.1c-0.2-0.6-0.4-1.3-0.7-1.9c-0.1-0.1-0.1-0.3-0.2-0.4c-0.1-0.3-0.2-0.6-0.5-0.8 c-0.3-0.2-0.5-0.3-0.8-0.3c-0.1,0-0.2,0-0.3,0.1c-0.4,0.1-0.6,0.4-0.8,0.7c-0.2,0.3-0.4,0.7-0.6,1c-0.4,0.6-0.7,1.2-1,1.9 c-0.3,0.6-0.7,1.2-1.1,1.8c-0.7,1.3-1.4,2.6-1.9,3.9c-0.3,0.7-0.6,1.5-0.8,2.2c-0.2,0.7-0.4,1.5-0.5,2.2c-0.3,1.5-0.5,3.1-0.6,4.6 c-0.1,1.5-0.1,3,0,4.6c0.1,0.8,0.1,1.5,0.2,2.3c0.1,0.8,0.1,1.6,0.2,2.3c0.2,1.5,0.3,3,0.4,4.5c0.1,1.5,0,3,0,4.5 c-0.1,1.5-0.1,3.1-0.1,4.7c0,0.8,0,1.5-0.1,2.3c0,0.8,0,1.5,0.1,2.3c0,1.1,0.1,2.3,0.2,3.4c0.1,1.3,0.2,2.6,0.5,3.9 c0.3,1.1,0.6,2.2,1,3.2c0.4,1.2,0.9,2.4,1.4,3.6c0.7,1.5,1.5,2.9,2.4,4.3c0.4,0.7,0.9,1.3,1.3,1.9c0.5,0.6,1,1.2,1.6,1.8 c1.1,1.2,2.1,2.4,3.2,3.5c1.1,1.1,2.4,2.1,3.7,3c0.5,0.4,1,0.8,1.5,1.1c0.1,0.1,0.3,0.2,0.4,0.3c0,0,0,0,0,0c1,0.7,2,1.4,3,2 c0.5,0.3,0.9,0.6,1.4,0.9c0.5,0.3,1,0.5,1.4,0.8c0.5,0.3,1,0.6,1.5,0.8c0.6,0.3,1.1,0.5,1.7,0.7c0.6,0.3,1.2,0.6,1.7,0.9 c0.5,0.3,0.9,0.6,1.4,0.9c1.1,0.8,2.1,1.8,2.9,2.9c0.5,0.6,0.9,1.2,1.4,1.9c0.5,0.7,1.1,1.4,1.7,2c0.7,0.8,1.3,1.6,1.8,2.5 c0.3,0.6,0.6,1.3,0.7,2c0.1,0.4,0.2,0.8,0.3,1.1c-0.1,0.8-0.1,1.6-0.2,2.4c-0.2,1.6-0.4,3.3-0.7,4.9c-0.3,1.9-0.7,3.9-1,5.8 c-0.2,0.8-0.4,1.7-0.6,2.5c-0.2,0.9-0.4,1.7-0.7,2.6c-0.4,1.7-0.9,3.4-1.4,5.1c-0.4,1.2-0.9,2.4-1.3,3.7c-0.4,1.2-0.9,2.4-1.3,3.7 c-0.2,0.6-0.5,1.2-0.7,1.8c-0.3,0.6-0.6,1.3-0.7,2c-0.2,0.6,0.3,1.2,0.9,1.4c0.6,0.2,1.2-0.3,1.4-0.9c0,0,0-0.1,0-0.1 c0.3-0.7,0.6-1.5,0.9-2.2c0.4-0.9,0.7-1.9,1.1-2.8c0.6-1.7,1.3-3.4,1.9-5.2c0.6-1.6,1-3.2,1.5-4.9c0.2-0.9,0.4-1.8,0.7-2.7 c0.2-0.8,0.5-1.7,0.7-2.5c0.3-1.2,0.5-2.3,0.7-3.5c0.2-1.2,0.4-2.4,0.6-3.6c0.4-2.2,0.7-4.3,1-6.5c0-0.2,0-0.4,0.1-0.5c0,0,0,0,0,0 c0.2-2,0.4-3.9,0.5-5.9c0.1-1.7,0.2-3.4,0.2-5.2c0-0.1,0-0.2,0.1-0.2c0.2-0.5,0.5-1,0.7-1.5c0.3-0.5,0.6-1,1-1.5 c0.3-0.4,0.7-0.9,1.1-1.3c0.4-0.4,0.8-0.8,1.2-1.1c0.4-0.4,0.8-0.8,1.3-1.2c0.4-0.4,0.8-0.8,1.2-1.2c0.4-0.4,0.7-0.8,1.1-1.2 c0.3-0.4,0.7-0.7,1-1.1c0.8-0.9,1.5-1.8,2.2-2.8c0.2-0.3,0.3-0.5,0.5-0.8c0.2-0.3,0.3-0.6,0.4-0.9c0,0,0,0,0,0 c0-0.1,0.1-0.1,0.1-0.2c0,0.1,0,0.1-0.1,0.2c0.1-0.2,0.2-0.5,0.2-0.7c0.2-0.1,0.5-0.2,0.6-0.4c0.3-0.4,0.6-0.8,1-1.1 c0.3-0.2,0.5-0.4,0.8-0.5c0.1,0,0.2-0.1,0.3-0.1c0.5-0.2,1-0.4,1.5-0.5c0.6-0.1,1.1-0.3,1.7-0.4c0.6-0.2,1.2-0.4,1.8-0.6 c0.7-0.3,1.4-0.6,2-0.9c0.6-0.3,1.2-0.8,1.7-1.2c0.7-0.5,1.3-1,1.9-1.6c0.5-0.5,0.9-1,1.4-1.6c0.6-0.7,1-1.4,1.5-2.1l-0.2,0.3 c0.3-0.4,0.6-0.8,0.8-1.2c0.9-1.2,1.7-2.4,2.7-3.5c0.5-0.6,1.1-1.2,1.6-1.8c0.5-0.5,1-1,1.6-1.4c1.2-0.9,2.4-1.8,3.6-2.6 c1.2-0.8,2.4-1.5,3.7-2.2c0.8-0.4,1.6-0.7,2.3-1.1c0.7-0.4,1.5-0.8,2.2-1.3c1.5-1,2.7-2.2,3.9-3.6c1.2-1.4,2.2-2.9,3.2-4.5 c0.4-0.7,0.9-1.5,1.3-2.3c0.3-0.7,0.7-1.5,0.9-2.2c0.7-1.8,1.2-3.6,1.7-5.4c0.4-1.6,0.7-3.3,0.8-5c0.2-1.8,0.4-3.7,0.4-5.6 c0-0.8,0-1.7-0.1-2.5c-0.1-0.8-0.1-1.7-0.2-2.5c-0.1-1.3-0.2-2.5-0.3-3.8c-0.1-0.6-0.1-1.2-0.2-1.8c-0.1-0.7-0.1-1.3-0.2-2 c-0.1-1.3,0-2.6-0.1-3.9c0-1.2,0-2.5,0.1-3.7C126.2,172.9,126.3,172.1,126.5,171.3z M109.9,90.2c0.3,0.9,0.5,1.8,0.8,2.7 c0.2,0.9,0.5,1.8,0.7,2.7c0.3,1,0.5,1.9,0.8,2.9c0.5,1.9,0.9,3.9,1.3,5.9c0.2,1.1,0.3,2.1,0.5,3.2c0.2,1.2,0.2,2.4,0.3,3.6 c0.1,2.2,0.1,4.4-0.1,6.5c-0.2,1.3-0.5,2.5-0.8,3.8c-0.3,1.2-0.7,2.3-1.1,3.4c-0.5,1.2-1,2.5-1.7,3.6c-0.7,1.2-1.5,2.4-2.3,3.5 c-1,1.4-2.1,2.8-3.3,4.1c-0.5,0.6-1.1,1.2-1.6,1.8c-0.6,0.6-1.1,1.3-1.6,2c-0.6,0.8-1.2,1.5-1.7,2.3c-0.5,0.7-0.9,1.4-1.3,2.1 c-0.8,1.4-1.6,2.7-2.2,4.1c-0.3,0.7-0.6,1.4-1,2.2c-0.3,0.7-0.7,1.5-1.1,2.2c-0.4,0.6-0.8,1.2-1.2,1.8c-0.3,0.5-0.7,1.1-1,1.6 c-1.1,1.4-2.4,2.6-3.8,3.8c0.1-0.1,0.2-0.1,0.2-0.2c-0.1,0.1-0.2,0.2-0.3,0.3c-0.5,0.4-0.9,0.7-1.4,1.2c-0.1,0.1-0.1,0.1-0.2,0.2 c0,0,0,0,0-0.1c0,0,0,0,0,0c0,0,0,0,0,0c0,0,0,0,0,0c0,0,0,0,0,0c0,0,0,0,0,0c0,0,0,0,0,0c0,0,0,0,0,0c0.2-0.5,0.4-1.1,0.6-1.7 c0.2-0.6,0.3-1.1,0.5-1.7c0.3-1.1,0.6-2.1,0.9-3.2c0.3-1,0.6-1.9,0.9-2.9c0.4-1,0.7-2.1,1.1-3.1c0.4-1,0.8-2,1.2-3 c0.3-0.8,0.6-1.6,0.9-2.4c0.4-1,0.8-2,1.3-3c0.5-1.1,1.1-2.3,1.6-3.4c0.5-1.1,1.1-2.2,1.6-3.3c0.6-1.3,1.1-2.5,1.6-3.8 c0.5-1.4,0.9-2.9,1.3-4.4c0.4-1.4,0.7-2.8,1-4.2c0.3-1.4,0.5-2.8,0.8-4.2c0.3-1.6,0.5-3.1,0.6-4.7c0.1-1.3,0.2-2.6,0.2-3.9 c0-0.6,0-1.3,0-2c0-0.7,0-1.4,0-2c0-0.6,0-1.3,0-1.9c0-0.7,0-1.4,0-2.1c0.1-1.4,0.2-2.7,0.3-4.1c0-0.1,0-0.2,0-0.3c0,0,0-0.1,0-0.1 c0,0,0,0,0,0.1c0,0,0-0.1,0-0.1c0,0,0-0.1,0-0.1c0,0,0,0,0,0.1c0.1-1.1,0.2-2.2,0.3-3.2c0.1-1.2,0.3-2.4,0.5-3.6 c0.2-1.2,0.4-2.4,0.6-3.6c0.3-1.2,0.6-2.4,1-3.5c0.2-0.6,0.4-1.2,0.6-1.8c0.2-0.6,0.3-1.1,0.5-1.7c0.2-0.4,0.4-0.9,0.6-1.3 c0.1-0.3,0.3-0.6,0.5-0.8c0,0.3,0,0.5,0,0.8c0,0.9,0.1,1.7,0.1,2.6c0.1,0.9,0.1,1.8,0.2,2.6c0.1,0.9,0.2,1.7,0.3,2.6 c0.2,0.9,0.4,1.9,0.6,2.8C109.4,88.5,109.7,89.4,109.9,90.2z M80.9,151.9c-0.1-0.6-0.3-1.1-0.4-1.7c-0.1-0.5-0.2-1-0.3-1.6 c-0.1-0.7-0.2-1.5-0.3-2.3c-0.1-0.8-0.2-1.6-0.2-2.4c-0.1-1.6-0.1-3.3,0-4.9c0.3-3,0.9-5.9,1.9-8.7c0.2-0.5,0.4-1.1,0.7-1.6 c0.3-0.5,0.5-1,0.9-1.4c0.4-0.6,0.9-1,1.4-1.6c0.6-0.7,1.2-1.5,1.7-2.3c0.5-0.7,0.9-1.4,1.3-2.2c0.4-0.7,0.7-1.5,1.1-2.3 c0.7-1.8,1.3-3.7,1.8-5.6c0.4-1.7,0.8-3.4,1.3-5.1c0.5-2,1-4.1,1.5-6.1c0.4-1.9,0.9-3.9,1.6-5.7c0.4-1.2,0.9-2.3,1.3-3.5 c0,0.1,0,0.1-0.1,0.2c0-0.1,0.1-0.2,0.1-0.3c0.7-1.9,1.5-3.8,2.4-5.6c0.4-0.9,0.9-1.8,1.4-2.7c0.5-0.8,1-1.6,1.5-2.4 c0.6-0.9,1.3-1.7,1.9-2.5c0.5-0.6,1-1.3,1.5-1.9c-0.2,0.5-0.4,1-0.5,1.6c-0.2,0.7-0.5,1.5-0.7,2.2c-0.5,1.4-0.9,2.9-1.2,4.3 c-0.2,0.7-0.3,1.4-0.4,2.1c-0.1,0.7-0.2,1.4-0.3,2.1c-0.1,0.7-0.2,1.5-0.3,2.2c-0.1,0.8-0.1,1.5-0.2,2.3c0,0.3-0.1,0.7-0.1,1 c-0.1,1.4-0.3,2.8-0.4,4.2c-0.1,1.4-0.1,2.8-0.1,4.2c0,0.7,0,1.3,0,2c0,0.7,0,1.4,0,2.1c0,1.3-0.1,2.7-0.2,4 c-0.1,1.3-0.3,2.5-0.5,3.7c-0.3,1.3-0.5,2.5-0.8,3.8c-0.6,2.4-1.3,4.8-2.1,7.1c0,0.1-0.1,0.2-0.1,0.4c-0.3,0.7-0.5,1.4-0.9,2 c-0.3,0.7-0.7,1.4-1,2c-0.7,1.3-1.4,2.5-2.1,3.8c-0.7,1.3-1.4,2.5-2.1,3.8c-0.7,1.3-1.3,2.7-1.7,4.2c-0.2,0.7-0.4,1.3-0.7,2 c-0.2,0.7-0.5,1.4-0.7,2.1c-0.5,1.4-0.8,2.8-1.2,4.2c-0.7,2.6-1.2,5.3-1.7,7.9c-0.2,0.8-0.4,1.7-0.7,2.5c-0.2,0.5-0.5,1-0.8,1.6 c0,0.1-0.1,0.2-0.1,0.3c0-0.1,0-0.2,0-0.4c0-0.4,0-0.8-0.1-1.1c-0.1-0.4-0.1-0.9-0.2-1.3c-0.2-1-0.3-2.1-0.5-3.1 c-0.2-0.9-0.5-1.9-0.7-2.8C81.3,153.8,81.1,152.8,80.9,151.9z M62.6,40.9c0.4,1.6,1.1,3,1.7,4.5c0.6,1.5,1.2,3,1.8,4.6 c0.3,0.8,0.7,1.6,1,2.3c0.3,0.8,0.6,1.5,0.9,2.3c0.5,1.4,1,2.7,1.4,4.1c0.2,0.7,0.4,1.4,0.6,2.1c0.2,0.7,0.3,1.4,0.4,2.1 c0.4,2.3,0.7,4.6,0.8,6.9c0.1,1.2,0.1,2.4,0.1,3.6c0,1.3,0,2.5-0.1,3.8c0,0.1,0,0.1,0,0.2c0,0.1,0,0.2,0,0.2c0-0.1,0-0.3,0-0.4 c-0.1,1.6-0.4,3.1-0.7,4.7c-0.3,1.6-0.6,3.2-1,4.7c-0.4,1.5-0.8,3.1-1.1,4.6c-0.4,1.5-0.9,3-1.4,4.5c-1,3.1-1.9,6.2-2.2,9.4 c-0.1,1.6-0.2,3.2-0.3,4.8c-0.1,0.8-0.1,1.6-0.1,2.4c0,0.4,0,0.7,0,1.1c0,0.3,0,0.7-0.1,1c0,0.3,0,0.7,0,1c-0.1,0.7-0.1,1.3-0.1,2 c0,0.5-0.1,1-0.1,1.6c0,0.5,0,1.1,0,1.6c0,0.3,0,0.5,0,0.8c-0.2-0.4-0.4-0.8-0.5-1.2c-0.3-0.6-0.6-1.3-0.8-1.9 c-0.2-0.4-0.4-0.9-0.6-1.3c-0.2-0.5-0.5-0.9-0.7-1.4c0,0.1,0.1,0.2,0.1,0.3c-0.2-0.4-0.3-0.7-0.5-1.1c-0.4-0.9-0.8-1.7-1.1-2.6 c-0.4-1-0.8-2.1-1.2-3.2c-0.3-1.1-0.7-2.1-1-3.2c-0.3-1-0.4-1.9-0.6-2.9c-0.4-2.4-0.7-4.8-0.9-7.3c-0.1-0.6-0.1-1.3-0.1-1.9 c0-0.6,0-1.3,0-1.9c0-1.3,0-2.6,0-3.9c0-1.3,0.1-2.5,0.1-3.8c0-1.3,0.1-2.6,0.1-3.9c0-0.7,0-1.3,0-2c0-0.7-0.1-1.3-0.1-2 C56.1,75,56,73.8,56,72.5c-0.1-2.7-0.3-5.4-0.5-8c-0.1-1.3-0.3-2.5-0.4-3.8c-0.1-0.7-0.2-1.3-0.2-2c-0.1-0.6-0.2-1.2-0.3-1.8 c-0.2-1.3-0.4-2.6-0.6-4c-0.2-1.3-0.2-2.6-0.2-3.8c0-1.2-0.1-2.5,0-3.7c0-0.6,0.1-1.3,0.1-1.9c0-0.6,0-1.2,0.1-1.8 c0-0.8,0.1-1.7,0.2-2.5c0.1-0.6,0.2-1.2,0.2-1.8c0.1-0.6,0.2-1.3,0.4-1.9c0.1-0.6,0.3-1.2,0.5-1.8c0.2-0.6,0.3-1.1,0.5-1.7 c0.4-1.1,0.8-2.3,1.2-3.4c0.4-1.1,0.7-2.3,1.2-3.4c0-0.1,0.1-0.3,0.1-0.4c0,0,0,0.1,0,0.1c0,0,0-0.1,0-0.1c0,0,0-0.1,0.1-0.1 c0,0,0,0.1,0,0.1c0.2-0.6,0.5-1.2,0.8-1.8c0.3-0.6,0.7-1.2,1.1-1.8c0.2-0.3,0.5-0.7,0.7-1c0,0,0,0.1-0.1,0.1 c0.1-0.1,0.2-0.3,0.3-0.4c0,0.4,0,0.7,0,1.1c0,0.8,0,1.7-0.1,2.5c0,0.8-0.1,1.5-0.1,2.3c0,1.6,0,3.3,0.1,4.9 c0.1,1.8,0.4,3.6,0.7,5.5C61.9,37.7,62.2,39.3,62.6,40.9z M56.3,115c-1.3-1.1-2.6-2.3-3.9-3.5c-1.7-1.7-3.4-3.4-4.9-5.2 c-0.7-0.8-1.3-1.7-1.9-2.5c-0.7-0.9-1.3-1.8-1.9-2.7c-1.1-1.8-2.2-3.7-3.1-5.7c-0.6-1.4-1.3-2.9-1.7-4.4c-0.5-1.5-0.9-3.1-1.2-4.6 c-0.4-2.9-0.6-5.8-0.4-8.8c0.2-1.7,0.4-3.3,0.7-5c0.3-1.7,0.5-3.3,1-4.9c0.2-0.8,0.5-1.6,0.7-2.3c0.2-0.8,0.5-1.5,0.7-2.3 c0.4-1.6,0.9-3.3,1.2-4.9c0.3-1.6,0.7-3.2,1-4.8c0.1-0.8,0.2-1.6,0.4-2.3c0.1-0.8,0.3-1.6,0.4-2.5c0.2-1.6,0.6-3.2,0.9-4.8 c0.3-1.5,0.8-2.9,1.3-4.3c0.4-1.1,0.9-2.2,1.4-3.2c0.5-1,1-2,1.6-3c0.6-1,1.1-2,1.7-3c0.6-0.9,1.2-1.8,1.8-2.7 c0.8-1.1,1.6-2.1,2.5-3.1c0.9-1,1.8-2,2.9-2.9c0.1-0.1,0.2-0.2,0.2-0.2c-0.1,0.2-0.2,0.4-0.3,0.5c-0.4,0.8-0.7,1.6-1,2.4l0,0 c0,0,0,0.1-0.1,0.1c0,0,0,0,0,0c0,0,0,0.1,0,0.1c-0.4,1.1-0.8,2.2-1.2,3.4c-0.4,1.2-0.8,2.3-1.2,3.5c-0.4,1.1-0.7,2.3-1,3.5 c-0.3,1.2-0.5,2.4-0.7,3.7c-0.1,0.7-0.1,1.4-0.2,2.1c-0.1,0.6-0.1,1.2-0.1,1.9c0,0.7,0,1.3-0.1,2c0,0.6-0.1,1.2-0.1,1.8 c0,1.3,0,2.6,0,3.9c0,1.3,0.1,2.6,0.3,3.9c0.2,1.3,0.4,2.5,0.6,3.8c0.1,0.7,0.2,1.4,0.3,2.1c0.1,0.6,0.1,1.2,0.2,1.9 c0.3,2.6,0.5,5.2,0.6,7.8c0.1,2.6,0.1,5.3,0.2,7.9c0,1.3,0,2.5-0.1,3.8c0,0.7-0.1,1.3-0.1,2c0,0.6,0,1.3-0.1,1.9 c0,1.3-0.1,2.6-0.1,3.9c0,1.3,0.1,2.6,0.2,3.8c0,0.6,0.1,1.3,0.1,1.9c0,0.7,0.1,1.3,0.2,1.9c0.2,1.3,0.3,2.5,0.5,3.8 c0.1,0.5,0.2,1,0.3,1.5c0,0,0-0.1,0-0.1c0,0.1,0,0.1,0,0.2l0,0.2c0,0,0-0.1,0-0.1c0.2,1.2,0.4,2.3,0.7,3.5c0.3,1.2,0.7,2.3,1,3.4 c0.7,2.3,1.6,4.5,2.6,6.7c0.2,0.3,0.3,0.7,0.5,1c0,0,0-0.1-0.1-0.1c0.3,0.5,0.5,1.1,0.8,1.6c0,0.1,0.1,0.2,0.1,0.3 c-0.1-0.2-0.3-0.3-0.4-0.5C58.7,116.9,57.5,116,56.3,115z M21.3,105c0.9,1.5,1.8,3.1,2.8,4.6c0.9,1.5,2.1,2.8,3.3,4 c0.6,0.6,1.2,1.2,1.8,1.8c0.6,0.6,1.3,1.2,2,1.8c1.2,1,2.3,1.9,3.4,2.9c0.5,0.5,1,1,1.5,1.5c0.5,0.5,1,1.1,1.5,1.7 c0.8,1,1.6,2,2.4,3c0.8,1,1.7,2,2.4,3.1c0.4,0.5,0.7,1.1,1.1,1.6c0.4,0.7,0.8,1.3,1.1,2c0.6,1,1.1,2.1,1.6,3.2 c0.5,1.2,1,2.3,1.5,3.5c0.3,0.7,0.5,1.3,0.7,2c0.2,0.7,0.4,1.4,0.6,2.1c0.4,1.3,0.6,2.6,0.9,3.9c0.2,0.7,0.4,1.3,0.5,2 c0.2,0.7,0.3,1.4,0.4,2c0.2,1.2,0.5,2.5,0.8,3.7c0.3,1.1,0.5,2.2,0.7,3.3c0.1,0.5,0.1,0.9,0.2,1.4c0,0.1,0,0.2,0,0.2 c0.5,3,1.2,6,2.3,8.8c0.6,1.6,1.1,3.2,1.9,4.7c0.4,0.8,0.8,1.5,1.2,2.3c0.4,0.7,0.7,1.4,1.2,2c0.4,0.7,0.9,1.3,1.4,1.9 c0.4,0.6,0.9,1.2,1.3,1.8c-0.1-0.1-0.2-0.1-0.3-0.2c-0.5-0.3-1.1-0.7-1.6-1c-1.1-0.8-2.2-1.8-3.3-2.8c-0.5-0.5-1.1-1-1.6-1.5 c-0.5-0.5-1.1-1-1.6-1.6c-0.8-1-1.5-2-2.2-3.1c-0.4-0.6-0.7-1.3-1.1-1.9c-0.3-0.6-0.6-1.1-0.9-1.7c-0.2-0.5-0.5-1.1-0.7-1.6 c-0.3-0.6-0.5-1.2-0.8-1.8c-0.5-1.3-1.1-2.5-1.6-3.8c-0.2-0.6-0.4-1.3-0.6-2c-0.2-0.7-0.4-1.4-0.6-2c-0.4-1.4-0.8-2.7-1.3-4.1 c-0.3-0.8-0.6-1.5-0.9-2.3c-0.3-0.8-0.5-1.6-0.8-2.4c-0.6-1.6-1.3-3.2-2-4.8c-0.2-0.3-0.3-0.7-0.5-1c0,0.1,0.1,0.2,0.1,0.3 c-0.3-0.7-0.6-1.4-1-2c-0.4-0.7-0.7-1.3-1.1-2c-0.3-0.6-0.7-1.2-1-1.8c-0.4-0.7-0.7-1.3-1.1-2c-1.4-2.4-2.9-4.7-4.6-7 c-0.6-0.8-1.2-1.6-1.8-2.3c-0.6-0.8-1.2-1.6-1.7-2.4c-0.5-0.8-1-1.6-1.4-2.4c-0.5-0.9-1-1.7-1.4-2.6c0,0.1,0.1,0.1,0.1,0.2 c-0.1-0.1-0.1-0.2-0.2-0.3c-0.4-0.8-0.8-1.6-1.1-2.4c-0.3-0.9-0.6-1.9-0.9-2.8c-0.5-1.6-0.9-3.3-1.2-5c-0.1-0.9-0.3-1.9-0.4-2.8 c0-0.2-0.1-0.4-0.1-0.6C21.1,104.6,21.2,104.8,21.3,105z M60.1,184.7c-1.4-0.3-2.7-0.6-4-1c-1.5-0.4-2.9-0.7-4.4-1.3 c-0.5-0.2-1.1-0.4-1.6-0.7c-0.6-0.3-1.2-0.6-1.7-1c-1.1-0.6-2.2-1.4-3.3-2.1c-1.4-1-2.6-2.1-3.9-3.2c-1.3-1.1-2.6-2.2-3.7-3.5 c-1.6-2-2.9-4.2-4-6.4c-0.7-1.5-1.3-3.1-1.7-4.7c-0.4-1.7-0.8-3.4-1.1-5.2c-0.4-1.7-0.8-3.5-1.3-5.2c-0.6-1.7-1.3-3.3-1.9-5 c-0.8-2-1.6-4-2.6-5.9c-0.6-1.3-1.1-2.5-1.7-3.8c-0.6-1.4-1.3-2.7-1.8-4.1c-0.5-1.3-1-2.6-1.4-3.9c-0.4-1.4-0.6-2.8-0.9-4.2 c0-0.2-0.1-0.4-0.1-0.6c0,0,0,0.1,0,0.1c0,0,0-0.1,0-0.1c-0.1-0.9-0.3-1.9-0.4-2.8c-0.1-1-0.2-1.9-0.3-2.9 c-0.1-1.8-0.2-3.6-0.1-5.4c0.2-1.6,0.5-3.2,0.8-4.7c0.1-0.4,0.2-0.9,0.3-1.3c0,0.2,0.1,0.4,0.1,0.6c0.2,1.4,0.5,2.8,0.8,4.1 c0.3,1.3,0.7,2.6,1,3.9c0.2,0.7,0.4,1.4,0.6,2.1c0.3,0.6,0.5,1.3,0.8,1.9c0.6,1.4,1.3,2.7,2.1,4c0.7,1.2,1.4,2.4,2.2,3.5 c0.4,0.6,0.9,1.1,1.3,1.7c0.4,0.6,0.9,1.1,1.3,1.7c0.9,1.2,1.7,2.4,2.5,3.6c0.5,0.8,0.9,1.5,1.4,2.3c0.5,0.9,1,1.8,1.4,2.7 c0.4,0.8,0.9,1.7,1.4,2.5c0.5,0.8,0.9,1.6,1.3,2.4c1,2.3,2,4.6,2.7,7c0.3,1.1,0.7,2.3,1.1,3.4c0.4,1.2,0.7,2.5,1,3.8 c0.2,1.4,0.5,2.7,0.8,4.1c0.3,1.3,0.8,2.6,1.2,3.9c0.4,1.3,0.9,2.6,1.5,3.8c0.3,0.8,0.7,1.5,1.1,2.2c0.3,0.6,0.7,1.1,1,1.7 c0.4,0.7,0.9,1.3,1.4,1.9c0.4,0.5,0.9,1,1.3,1.5c0.4,0.4,0.8,0.9,1.3,1.3c0.4,0.4,0.9,0.8,1.4,1.2c1.9,1.5,3.7,3.2,5.8,4.4 c0.6,0.3,1.2,0.6,1.8,1c0.5,0.3,0.9,0.5,1.3,0.8c0.1,0,0.1,0.1,0.2,0.1C61.6,184.9,60.9,184.8,60.1,184.7z M68.5,189.8 C68.5,189.8,68.5,189.8,68.5,189.8c0,0,0.1,0.1,0.2,0.1C68.6,189.9,68.6,189.9,68.5,189.8z M53.4,248.8c-0.1-0.1-0.1-0.3-0.2-0.4 c0-0.1-0.1-0.1-0.1-0.2L53.4,248.8z M35.5,186.8c0.4,0.6,0.7,1.3,1.1,1.9c0.4,0.6,0.8,1.3,1.2,1.9c0.4,0.6,0.9,1.2,1.4,1.8 c0.9,1.2,1.8,2.5,2.6,3.8c0.7,1.1,1.3,2.2,2,3.4c0.6,1,1.2,2.1,1.7,3.2c0.5,1,0.9,2.1,1.3,3.1c0.3,1.1,0.5,2.3,0.7,3.4 c0.2,1.4,0.5,2.8,0.7,4.2c0.1,0.8,0.2,1.5,0.3,2.3c0.1,0.8,0.2,1.5,0.2,2.3c0.1,1.5,0.3,3,0.4,4.5c0.1,1.5,0.1,3,0,4.5 c0,0.9,0,1.8,0,2.7c0,0.9,0,1.8,0,2.7c0,0.9,0.1,1.8,0.2,2.6c0.1,1,0.3,2,0.4,3c0.2,0.8,0.3,1.7,0.5,2.5c0.2,0.9,0.5,1.7,0.8,2.5 c0.3,0.9,0.6,1.8,1,2.6c0.1,0.4,0.3,0.7,0.4,1c0.2,0.5,0.5,1,0.8,1.6c0.3,0.7,0.6,1.3,0.9,2c0.3,0.7,0.5,1.4,0.8,2.1 c0.5,1.3,1.1,2.6,1.3,3.9c0,0.3,0.1,0.5,0.1,0.8c-0.1-0.1-0.2-0.2-0.2-0.3c-0.3-0.3-0.6-0.5-0.9-0.8c-0.6-0.5-1.1-1.1-1.6-1.7 c-0.5-0.6-1-1.3-1.6-1.9c-0.9-1.1-1.8-2.2-2.6-3.4c-0.8-1.3-1.6-2.7-2.3-4.1c-0.9-2.1-1.6-4.2-2.4-6.3c-0.4-1-0.7-2.1-1-3.2 c-0.3-1.1-0.6-2.3-0.8-3.4c-0.1-0.4-0.1-0.7-0.2-1.1c-0.1-0.5-0.2-1-0.3-1.4c-0.2-1.1-0.4-2.3-0.5-3.5c-0.2-1.4-0.4-2.7-0.6-4.1 c-0.5-2.5-1.2-4.9-1.9-7.3c-0.4-1.2-0.7-2.4-1.1-3.5c-0.4-1.1-0.7-2.3-1-3.5c-0.3-1.2-0.7-2.4-1-3.6c-0.3-1.1-0.7-2.3-1-3.4 c-0.3-0.9-0.5-1.8-0.7-2.7c-0.1-1-0.2-2-0.2-2.9c0-1-0.1-2.1-0.1-3.1c0-1,0-2.1,0-3.1c0-0.5,0-1,0-1.5c0-0.4,0-0.9,0.1-1.3 c0.1-0.5,0.1-0.9,0.2-1.4C34.8,185.5,35.2,186.2,35.5,186.8z M53.3,258.1c-1.3-0.6-2.5-1.3-3.7-2.1c-0.9-0.6-1.8-1.2-2.6-1.8 c-1.4-1-2.7-2.1-4.1-3.2c-1.4-1.1-2.7-2.4-3.9-3.8c0.1,0.1,0.1,0.1,0.1,0.2c-0.2-0.2-0.4-0.5-0.6-0.7c-1.1-1.3-2.2-2.6-3.1-4 c-0.5-0.7-0.9-1.5-1.4-2.3c-0.4-0.7-0.7-1.4-1.1-2.1c-0.5-1.2-1-2.5-1.4-3.8c-0.4-1.2-0.7-2.4-1-3.6c-0.2-1.5-0.3-2.9-0.4-4.4 c0-0.8-0.1-1.5-0.1-2.3c0-0.8-0.1-1.5-0.1-2.3c0-1.5-0.1-3.1-0.1-4.6c0-1.5,0-3,0-4.5c0-1.4-0.2-2.8-0.3-4.2 c-0.1-0.7-0.2-1.4-0.3-2c-0.1-0.7-0.2-1.4-0.2-2.1c-0.2-1.4-0.4-2.8-0.4-4.3c0-1.4,0-2.7,0.1-4.1c0.1-0.5,0.1-1,0.2-1.6 c0.1-0.6,0.2-1.2,0.3-1.8c0.1-0.6,0.2-1.2,0.4-1.7c0.2-0.5,0.3-1,0.5-1.5c0.3-0.8,0.7-1.6,1.1-2.5c0.4-0.8,0.8-1.5,1.2-2.3 c0-0.1,0.1-0.1,0.1-0.2c0,0.3-0.1,0.6-0.1,0.9c-0.1,0.7-0.1,1.4-0.2,2.1c0,0.6,0,1.2,0,1.8c0,1.2-0.1,2.4,0,3.6 c0,1.3,0.1,2.5,0.1,3.8c0,0.6,0.1,1.1,0.1,1.7c0.1,0.7,0.3,1.4,0.5,2c0.3,1.2,0.6,2.4,0.9,3.6c0.3,1.2,0.7,2.4,1,3.6 c0.3,1.2,0.6,2.3,0.9,3.5c0.3,1,0.6,1.9,0.9,2.9c0.3,1,0.6,1.9,0.8,2.9c0.3,1,0.5,2,0.8,3c0.3,1,0.5,2.1,0.7,3.1 c0.4,2.4,0.6,4.9,1,7.3c0.3,2.4,0.7,4.7,1.2,7.1c0.1,0.5,0.3,1.1,0.4,1.6c0.2,0.6,0.3,1.1,0.5,1.6c0.2,0.6,0.3,1.1,0.5,1.7 c0.2,0.5,0.4,1.1,0.6,1.6c0.4,1.2,0.9,2.4,1.6,3.5c0.6,1,1.3,2,1.9,3c0.6,0.9,1.3,1.7,2,2.4c0.4,0.4,0.7,0.8,1.1,1.1 c0.3,0.3,0.7,0.6,1,0.9c0.7,0.7,1.3,1.4,2,2c0.3,0.3,0.6,0.6,1,0.9c0.4,0.3,0.7,0.7,1,1c0,0,0,0,0,0 C54.4,258.6,53.9,258.3,53.3,258.1z M77.9,247.9L77.9,247.9C77.9,247.9,77.9,247.9,77.9,247.9C77.9,247.9,77.9,247.9,77.9,247.9z M81.2,226.5c0-1.1,0.1-2.3,0.2-3.4c0.2-1.7,0.4-3.5,0.7-5.2c0.2-1.7,0.6-3.3,1.2-4.9c0.8-2,1.9-3.8,3.1-5.5 c0.7-0.9,1.4-1.8,2.3-2.6c1.2-0.9,2.5-1.7,3.7-2.6c0.8-0.6,1.5-1.2,2.2-1.9c0.6-0.6,1.1-1.2,1.6-1.9c1.1-1.4,2-3,2.9-4.5 c0.4-0.7,0.8-1.4,1.2-2.1c0.4-0.7,0.8-1.4,1.2-2.2c0.7-1.4,1.4-2.8,2.3-4.1c1.1-1.5,2.2-3,3.5-4.4c1.3-1.4,2.8-2.7,4.2-4 c0.8-0.7,1.7-1.4,2.6-2c0.9-0.7,1.9-1.3,2.8-1.9c1-0.6,2.1-1.2,3.1-1.8c0.7-0.4,1.4-0.8,2.2-1.2c0,0,0,0,0,0 c-0.4,0.4-0.8,0.9-1.2,1.4c-0.4,0.6-0.9,1.1-1.3,1.7c0,0,0,0,0-0.1c0,0,0,0-0.1,0.1c-0.1,0.1-0.1,0.2-0.2,0.3 c0-0.1,0.1-0.1,0.1-0.2c-0.2,0.3-0.4,0.5-0.5,0.8c0,0,0,0,0,0c-0.1,0.1-0.1,0.2-0.2,0.3c-0.7,1-1.4,1.9-2.2,2.8 c-0.8,1.1-1.7,2.1-2.4,3.3c-0.6,1.1-1.2,2.2-1.8,3.3c-0.5,1.2-1.1,2.3-1.6,3.5c-0.6,1.4-1.2,2.7-1.8,4.1c0,0,0,0,0,0 c-0.4,1.1-0.8,2.3-1.2,3.5c-0.2,0.5-0.4,1.1-0.5,1.6c-0.2,0.6-0.4,1.2-0.6,1.8c-0.5,1.4-1.1,2.8-1.7,4.1c-0.7,1.4-1.3,2.8-2.2,4.1 c-1.4,1.9-3.1,3.7-4.7,5.5c-1.6,1.8-3.5,3.3-5.1,5.2c-0.9,1.1-1.7,2.3-2.5,3.5c-0.3,0.5-0.7,1.1-1,1.6c-0.3,0.6-0.6,1.2-0.9,1.7 c-0.5,1.1-1,2.3-1.5,3.5c-0.3,0.7-0.6,1.3-0.8,2c-0.2,0.6-0.4,1.2-0.6,1.8c-0.4,1.1-0.7,2.2-1.1,3.3c-0.3,0.9-0.5,1.9-0.8,2.8 c0-0.1,0.1-0.1,0.1-0.2c0,0.1-0.1,0.2-0.1,0.3c0,0,0,0,0,0c0,0,0,0,0,0l0,0c-0.1,0.1-0.1,0.3-0.2,0.4c-0.3,0.7-0.6,1.5-1,2.2 c-0.4,0.7-0.8,1.4-1.3,2c-0.1,0.1-0.2,0.2-0.3,0.4c0-0.1,0-0.2,0-0.3c0-0.4,0.1-0.8,0.1-1.2c0-0.8,0-1.6,0-2.5 c0-0.8-0.1-1.5-0.1-2.3c0-1.6,0-3.1,0-4.7C81.2,229.9,81.2,228.2,81.2,226.5z M123.4,181.7c0.1,1.6,0.2,3.3,0.3,4.9 c0.1,1.4,0.1,2.8,0.1,4.2c0,1.3,0,2.6-0.1,3.9c-0.2,2-0.6,3.9-1,5.8c-0.4,1.9-1,3.8-1.7,5.7c-0.6,1.4-1.2,2.8-1.9,4.1 c-0.8,1.4-1.6,2.7-2.5,3.9c-0.6,0.8-1.2,1.6-1.8,2.4c-0.7,0.8-1.3,1.6-2.1,2.3c-2.5,1.9-5.2,3.4-7.7,5.3c-1.4,1.1-2.8,2.1-4.1,3.3 c-1.2,1.1-2.3,2.3-3.4,3.6c-0.8,1-1.5,1.9-2.2,2.9c0,0,0.1-0.1,0.1-0.1c-0.1,0.1-0.1,0.2-0.2,0.2c0,0,0,0.1-0.1,0.1c0,0,0,0,0-0.1 c-0.5,0.7-1,1.5-1.6,2.3c-0.4,0.5-0.8,1-1.2,1.5c-0.4,0.5-0.8,0.9-1.3,1.3c-0.2,0.2-0.5,0.4-0.7,0.6c-0.4,0.3-0.8,0.6-1.2,0.9 c-0.4,0.3-0.9,0.6-1.3,0.8c0,0,0,0,0,0c-0.3,0.1-0.6,0.3-0.9,0.4c-0.6,0.3-1.2,0.5-1.9,0.6c-0.3,0.1-0.7,0.2-1,0.3 c0.1-0.2,0.2-0.3,0.4-0.5c0.6-0.9,1.1-1.8,1.6-2.8c0.4-1,0.8-2,1.2-3c0.1-0.4,0.3-0.9,0.4-1.3c0.2-0.5,0.3-0.9,0.5-1.4 c0.4-1.1,0.9-2.2,1.3-3.3c0.2-0.6,0.5-1.1,0.8-1.6c0.3-0.6,0.6-1.2,0.8-1.8c0.6-1.1,1.1-2.2,1.8-3.3c0.6-1.1,1.4-2.2,2.1-3.2 c0.1-0.2,0.2-0.3,0.4-0.5c0.3-0.5,0.7-0.9,1.1-1.4c0.4-0.5,0.8-0.9,1.2-1.4c0.8-0.9,1.6-1.7,2.4-2.6c0.8-0.9,1.6-1.9,2.3-2.9 c0.8-1.1,1.6-2.1,2.4-3.2c0.4-0.6,0.8-1.1,1.1-1.7c0.3-0.6,0.6-1.2,0.9-1.8c0.6-1.3,1.2-2.7,1.8-4c0.3-0.7,0.5-1.5,0.8-2.2 c0.3-0.8,0.5-1.5,0.7-2.3c0.5-1.5,0.9-3,1.4-4.5c0.4-1,0.8-1.9,1.2-2.9c0.4-1,0.8-2,1.2-3c0.4-1,0.9-2,1.4-3c0.5-0.9,1-1.9,1.6-2.8 c0-0.1,0.1-0.1,0.1-0.2c0,0-0.1,0.1-0.1,0.1c0.6-0.9,1.4-1.8,2-2.6c0.3-0.4,0.6-0.8,0.9-1.2c0.4-0.5,0.7-1,1.1-1.5 c0.1-0.1,0.2-0.2,0.2-0.4c0,0,0,0.1-0.1,0.1c0.1-0.1,0.1-0.1,0.1-0.2c0,0,0,0,0,0c0.6-0.8,1.2-1.6,1.8-2.4c0.3-0.3,0.6-0.6,0.9-0.9 c0.2-0.2,0.4-0.4,0.6-0.6c0,0.1-0.1,0.3-0.1,0.4c-0.4,1.7-0.5,3.4-0.5,5.1c0,0.8,0,1.7-0.1,2.5 C123.4,179.9,123.3,180.8,123.4,181.7z" style="fill: inherit;"/><path d="M108.6,175.8C108.7,175.8,108.7,175.8,108.6,175.8c0.1-0.1,0.2-0.2,0.3-0.2 C108.8,175.7,108.7,175.7,108.6,175.8z" style="fill: inherit;"/><path d="M84 237.5L84 237.5 84 237.5z" style="fill: inherit;"/><path d="M84,237.5C84,237.5,84,237.4,84,237.5C84,237.5,84,237.5,84,237.5C84,237.5,84,237.5,84,237.5z" style="fill: inherit;"/><path d="M108.2,201.1C108.2,201.1,108.2,201.1,108.2,201.1C108.2,201.2,108.2,201.2,108.2,201.1L108.2,201.1z" style="fill: inherit;"/><path d="M109.1,191.6C109.1,191.6,109.1,191.6,109.1,191.6c0-0.1,0.1-0.2,0.1-0.2 C109.2,191.4,109.1,191.5,109.1,191.6z" style="fill: inherit;"/><path d="M109.1,191.6C109.1,191.6,109.1,191.6,109.1,191.6C109.1,191.6,109.1,191.6,109.1,191.6 C109.1,191.6,109.1,191.6,109.1,191.6z" style="fill: inherit;"/><path d="M120.6,175.1C120.6,175.1,120.6,175.2,120.6,175.1c-0.1,0.1-0.1,0.1-0.1,0.2 C120.5,175.3,120.6,175.2,120.6,175.1z" style="fill: inherit;"/></g></svg>