<svg xmlns="http://www.w3.org/2000/svg" xmlns:xlink="http://www.w3.org/1999/xlink" preserveAspectRatio="xMidYMid meet" version="1.0" viewBox="1.0 0.5 2605.4 1325.4" zoomAndPan="magnify" style="fill: rgb(0, 0, 0);" original_string_length="7236"><g id="__id166_s6koes4g4c"><path d="M 0.96875 30.101562 C 86.578125 15.300781 172.191406 0.511719 280.125 0.769531 C 387.917969 1.039062 517.605469 16.371094 691.070312 61.859375 C 825.640625 97.140625 986.703125 150.621094 1155.269531 206.578125 C 1335.199219 266.320312 1523.699219 328.90625 1697.53125 375.144531 C 1913.53125 274.230469 2119.019531 185.03125 2273 154.488281 C 2362.859375 136.660156 2435.339844 138.789062 2489.28125 153.28125 C 2527.691406 163.609375 2556.878906 180.261719 2576.410156 200.550781 C 2596.429688 221.339844 2606.339844 245.898438 2605.769531 271.449219 C 2605.378906 288.609375 2600.261719 306.101562 2590.289062 323.089844 C 2558.140625 377.867188 2474.628906 427.929688 2343.480469 450.910156 C 2236.359375 469.683594 2097.03125 470.585938 1927.488281 441.371094 C 1855.929688 429.039062 1778.96875 411.335938 1698.871094 390.128906 C 1647.558594 414.121094 1595.660156 438.761719 1543.730469 463.414062 C 1452.109375 506.921875 1360.390625 550.46875 1271.851562 590.496094 C 1204.089844 621.128906 1138.039062 649.773438 1074.371094 675.886719 L 1079.230469 677.414062 C 1178.039062 708.46875 1280.050781 744.144531 1380.71875 779.351562 C 1507.21875 823.597656 1631.609375 867.101562 1745.480469 899.910156 C 1781.390625 882.8125 1817 866.648438 1851.871094 851.816406 C 1956.46875 807.328125 2054.578125 774.742188 2134.359375 764.636719 C 2210.890625 754.941406 2270.769531 765.957031 2309.109375 786.808594 C 2323.570312 794.671875 2335.070312 803.972656 2343.339844 814.144531 C 2351.890625 824.644531 2357.039062 836.097656 2358.53125 847.910156 C 2360.078125 860.125 2357.71875 872.574219 2351.160156 884.621094 C 2332.351562 919.214844 2277.800781 950.644531 2193 964.777344 C 2123.738281 976.320312 2033.859375 976.570312 1926.410156 957.777344 C 1870.761719 948.046875 1810.378906 933.199219 1746.71875 914.980469 C 1677.050781 948.28125 1606.359375 985.035156 1537.898438 1022.34375 C 1497.238281 1044.503906 1455.691406 1067.8125 1415.371094 1090.441406 C 1384.988281 1107.484375 1355.320312 1124.136719 1326.488281 1140.011719 C 1362.078125 1155.332031 1397.660156 1172.105469 1432.890625 1188.710938 C 1507.121094 1223.695312 1579.78125 1257.941406 1647.011719 1275.941406 C 1779.160156 1311.320312 1892.089844 1284.132812 2005.03125 1256.945312 L 2005.5 1256.832031 L 2006.671875 1263.835938 L 2008.300781 1270.675781 C 1893.589844 1298.289062 1778.890625 1325.902344 1643.351562 1289.617188 C 1574.960938 1271.304688 1501.699219 1236.777344 1426.859375 1201.5 C 1388.390625 1183.367188 1349.5 1165.035156 1310.71875 1148.660156 C 1192.960938 1213 1090.230469 1262.839844 1013.558594 1270.839844 C 962.886719 1276.128906 923.503906 1263.222656 897.382812 1242.222656 C 886.554688 1233.515625 877.984375 1223.402344 871.8125 1212.585938 C 865.589844 1201.679688 861.804688 1190.050781 860.589844 1178.410156 C 858.558594 1158.941406 863.714844 1139.523438 876.652344 1123.429688 C 899.824219 1094.601562 948.160156 1077.011719 1009.730469 1072.671875 C 1068.550781 1068.523438 1139.878906 1076.332031 1212.96875 1097.890625 C 1245.070312 1107.359375 1277.46875 1119.464844 1309.890625 1132.980469 C 1341.71875 1115.535156 1374.640625 1097.0625 1408.441406 1078.097656 C 1447.710938 1056.066406 1488.148438 1033.375 1531.140625 1009.941406 C 1595.171875 975.050781 1661.128906 940.644531 1726.378906 909.078125 C 1616.359375 876.734375 1497.179688 835.054688 1376.070312 792.695312 C 1275.78125 757.617188 1174.148438 722.074219 1075.03125 690.921875 C 1067.921875 688.6875 1060.828125 686.476562 1053.75 684.289062 C 959.535156 722.425781 870.785156 754.792969 789.753906 779.582031 C 647.964844 822.953125 529.675781 843.078125 446.875 830.257812 C 394.027344 822.074219 355.433594 800.527344 331.261719 773.117188 C 314.933594 754.601562 305.15625 733.402344 301.964844 711.769531 C 298.757812 690.074219 302.207031 667.972656 312.339844 647.726562 C 325.449219 621.527344 349.714844 598.5625 385.171875 583.839844 C 444.535156 559.1875 535.675781 557.726562 646.285156 572.777344 C 764.46875 588.859375 905.175781 623.765625 1053.121094 669.289062 C 1121.480469 641.527344 1192.738281 610.734375 1266.03125 577.597656 C 1354.808594 537.460938 1446.300781 494.023438 1537.699219 450.625 C 1584.511719 428.402344 1631.289062 406.1875 1677.648438 384.445312 C 1508.03125 338.574219 1325.421875 277.941406 1150.839844 219.980469 C 982.597656 164.121094 821.84375 110.75 687.527344 75.53125 C 515.3125 30.378906 386.796875 15.148438 280.125 14.890625 C 173.589844 14.628906 88.46875 29.339844 3.347656 44.050781 Z M 1718.910156 380.769531 C 1792.691406 399.949219 1863.621094 416.003906 1929.871094 427.421875 C 2097.671875 456.335938 2235.359375 455.480469 2341.050781 436.960938 C 2467.808594 414.746094 2547.898438 367.421875 2578.109375 315.949219 C 2586.839844 301.078125 2591.320312 285.910156 2591.648438 271.179688 C 2592.140625 249.410156 2583.550781 228.351562 2566.230469 210.351562 C 2548.429688 191.871094 2521.449219 176.589844 2485.621094 166.960938 C 2433.609375 152.980469 2363.320312 151.011719 2275.710938 168.378906 C 2126.839844 197.910156 1928.429688 283.21875 1718.910156 380.769531 Z M 785.65625 766.070312 C 861.554688 742.855469 944.386719 712.890625 1032.25 677.707031 C 891.074219 634.875 757.253906 602.140625 644.402344 586.785156 C 536.171875 572.054688 447.496094 573.277344 390.597656 596.902344 C 358.453125 610.253906 336.605469 630.773438 324.964844 654.035156 C 316.167969 671.609375 313.179688 690.828125 315.96875 709.722656 C 318.769531 728.679688 327.417969 747.347656 341.890625 763.761719 C 364.042969 788.878906 399.765625 808.675781 449.035156 816.304688 C 529.589844 828.777344 645.792969 808.855469 785.65625 766.070312 Z M 1766.140625 905.773438 C 1823.621094 921.847656 1878.230469 934.976562 1928.839844 943.828125 C 2034.640625 962.328125 2122.871094 962.128906 2190.671875 950.828125 C 2270.910156 937.453125 2321.878906 908.910156 2338.769531 877.867188 C 2343.851562 868.511719 2345.699219 858.957031 2344.53125 849.683594 C 2343.371094 840.527344 2339.25 831.5 2332.378906 823.058594 C 2325.238281 814.285156 2315.160156 806.175781 2302.359375 799.210938 C 2266.339844 779.621094 2209.480469 769.351562 2136.128906 778.644531 C 2057.820312 788.5625 1960.949219 820.789062 1857.410156 864.828125 C 1827.429688 877.578125 1796.921875 891.3125 1766.140625 905.773438 Z M 1012.128906 1256.777344 C 1084.191406 1249.257812 1181.75 1202.636719 1293.929688 1141.695312 C 1265.429688 1130.097656 1237.050781 1119.730469 1208.980469 1111.453125 C 1137.570312 1090.390625 1067.988281 1082.75 1010.730469 1086.785156 C 953.023438 1090.855469 908.292969 1106.632812 887.667969 1132.285156 C 877.171875 1145.339844 872.996094 1161.125 874.652344 1176.972656 C 875.660156 1186.660156 878.847656 1196.40625 884.101562 1205.609375 C 889.40625 1214.898438 896.820312 1223.632812 906.242188 1231.203125 C 929.722656 1250.082031 965.542969 1261.640625 1012.128906 1256.777344" style="fill: rgb(56, 182, 255);"/></g></svg>