<svg xmlns="http://www.w3.org/2000/svg" xmlns:xlink="http://www.w3.org/1999/xlink" preserveAspectRatio="xMidYMid meet" version="1.0" viewBox="-0.5 -2.4 504.5 40.5" zoomAndPan="magnify" style="fill: rgb(0, 0, 0);" original_string_length="888"><g id="__id241_sp1lc5ipkc"><path d="M19.3,32.2c11.5-4.1,23.5-6.5,35.6-7.4c2.5-0.2,2.5-4.2,0-3.9C42.2,21.9,30.1,25,18.3,30 C17.1,30.5,18,32.7,19.3,32.2L19.3,32.2z" style="fill: rgb(0, 151, 178);"/></g><g id="__id242_sp1lc5ipkc"><path d="M494.3,1.8c-7.9,12-21.8,18.3-35.3,22c-16,4.4-32.6,5.6-49.1,5.5c-34.2-0.3-68.6-5.4-102.6-9 C237.8,13,167.9,5.3,97.9,6.3C82.4,6.6,66.7,7,51.3,8.9c-35,5-47.8,15.7-48.6,16.4c-0.8,0.7-1.6,1.4-2.3,2.1c-0.9,0.8,0,2.4,1.2,2 c14.1-4.9,28-9.5,42.8-11.9c16.1-2.6,32.4-3.1,48.7-3.4c35.8-0.7,71.7,1,107.4,3.8c35.4,2.8,70.7,6.8,105.9,10.8 c34.6,3.9,69.6,9.4,104.5,9.3c30.4,0,72.1-3.9,90.3-32.2C504,1.5,497.1-2.4,494.3,1.8z" style="fill: rgb(0, 151, 178);"/></g></svg>