<svg xmlns="http://www.w3.org/2000/svg" enable-background="new 0 0 633 23" version="1.1" viewBox="0 0 633 23" x="0px" xml:space="preserve" y="0px" style="fill: rgb(56, 182, 255);" original_string_length="1947">
<g id="__id227_sqrfte42yz">
	<path d="m592.1 23c-10.5 0-15.7-5.3-20.8-10.5-4.8-4.9-9.3-9.5-18.6-9.5-9.2 0-13.8 4.6-18.6 9.6-5.1 5.1-10.3 10.5-20.8 10.5s-15.7-5.3-20.8-10.5c-4.7-5-9.3-9.6-18.5-9.6s-13.8 4.6-18.6 9.6c-5.1 5.1-10.3 10.5-20.8 10.5s-15.7-5.3-20.8-10.5c-4.8-5-9.4-9.6-18.6-9.6s-13.8 4.6-18.6 9.6c-5.1 5.1-10.3 10.5-20.8 10.5s-15.7-5.3-20.8-10.5c-4.8-4.9-9.4-9.6-18.6-9.6s-13.8 4.6-18.6 9.6c-5.1 5.1-10.3 10.5-20.8 10.5s-15.7-5.3-20.8-10.5c-4.7-5-9.2-9.6-18.5-9.6-9.2 0-13.8 4.6-18.6 9.6-5.1 5.1-10.3 10.5-20.8 10.5s-15.7-5.3-20.8-10.5c-4.7-5-9.3-9.6-18.5-9.6s-13.8 4.6-18.6 9.6c-5.1 5.1-10.3 10.5-20.8 10.5s-15.7-5.3-20.8-10.5c-4.8-5-9.3-9.6-18.6-9.6-9.2 0-13.7 4.6-18.6 9.6-5 5.1-10.3 10.4-20.7 10.4-10.5 0-15.7-5.3-20.8-10.5-4.8-4.9-9.4-9.5-18.6-9.5-0.8 0-1.5-0.7-1.5-1.5s0.7-1.5 1.5-1.5c10.5 0 15.7 5.3 20.8 10.5 4.8 4.9 9.4 9.6 18.6 9.6s13.8-4.6 18.6-9.6c5-5.2 10.3-10.5 20.7-10.5s15.7 5.3 20.8 10.5c4.8 4.9 9.4 9.6 18.6 9.6s13.8-4.6 18.6-9.6c5.1-5.2 10.3-10.5 20.8-10.5s15.7 5.3 20.8 10.5c4.8 4.9 9.4 9.6 18.6 9.6s13.8-4.6 18.6-9.6c5-5.2 10.3-10.5 20.7-10.5 10.5 0 15.7 5.3 20.8 10.5 4.8 4.9 9.4 9.6 18.6 9.6s13.8-4.6 18.6-9.6c5.1-5.2 10.3-10.5 20.8-10.5s15.7 5.3 20.8 10.5c4.8 4.9 9.4 9.6 18.6 9.6s13.8-4.6 18.6-9.6c5-5.2 10.3-10.5 20.7-10.5 10.5 0 15.7 5.3 20.8 10.5 4.8 4.9 9.4 9.6 18.6 9.6s13.8-4.6 18.6-9.6c5.1-5.2 10.3-10.5 20.8-10.5s15.7 5.3 20.8 10.5c4.8 4.9 9.4 9.6 18.6 9.6s13.8-4.6 18.6-9.6c5-5.2 10.3-10.5 20.7-10.5 10.5 0 15.7 5.3 20.8 10.5 4.8 4.9 9.4 9.6 18.6 9.6s13.8-4.6 18.6-9.6c5.1-5.2 10.3-10.5 20.8-10.5 0.8 0 1.5 0.7 1.5 1.5s-0.7 1.5-1.5 1.5c-9.2 0-13.8 4.6-18.6 9.6-5.1 5.1-10.3 10.4-20.8 10.4z" style="fill: inherit;"/>
</g>
</svg>